<svg width="10" height="10" viewBox="0 0 10 10" fill="none" xmlns="http://www.w3.org/2000/svg">
<path d="M5 0C3.06148 0 1.48438 1.57711 1.48438 3.51562C1.48438 4.17059 1.6658 4.80977 2.00916 5.3643L4.79988 9.8615C4.85334 9.94766 4.94752 10 5.04881 10C5.04959 10 5.05035 10 5.05113 10C5.1533 9.9992 5.24768 9.94523 5.30016 9.85758L8.01975 5.3168C8.34416 4.77398 8.51562 4.15115 8.51562 3.51562C8.51562 1.57711 6.93852 0 5 0ZM7.51691 5.01598L5.04438 9.14426L2.50717 5.05559C2.22137 4.59402 2.06641 4.06152 2.06641 3.51562C2.06641 1.9002 3.38457 0.582031 5 0.582031C6.61543 0.582031 7.93164 1.9002 7.93164 3.51562C7.93164 4.04533 7.78689 4.56422 7.51691 5.01598Z" fill="#8F8F8F"/>
<path d="M5 1.75781C4.03074 1.75781 3.24219 2.54637 3.24219 3.51562C3.24219 4.47869 4.01791 5.27344 5 5.27344C5.9942 5.27344 6.75781 4.46811 6.75781 3.51562C6.75781 2.54637 5.96926 1.75781 5 1.75781ZM5 4.69141C4.35045 4.69141 3.82422 4.16342 3.82422 3.51562C3.82422 2.86945 4.35383 2.33984 5 2.33984C5.64617 2.33984 6.17383 2.86945 6.17383 3.51562C6.17383 4.15396 5.65984 4.69141 5 4.69141Z" fill="#8F8F8F"/>
</svg>
