<svg width="115" height="22" viewBox="0 0 115 22" fill="none" xmlns="http://www.w3.org/2000/svg">
<path d="M4.272 4.452V10.416H13.736V13.496H4.272V21H0.632V1.4H14.94V4.452H4.272ZM24.434 21.196C22.922 21.196 21.5593 20.8693 20.346 20.216C19.1326 19.5627 18.1806 18.6573 17.49 17.5C16.818 16.324 16.482 14.9987 16.482 13.524C16.482 12.0493 16.818 10.7333 17.49 9.576C18.1806 8.41867 19.1326 7.51333 20.346 6.86C21.5593 6.20667 22.922 5.88 24.434 5.88C25.9646 5.88 27.3366 6.20667 28.55 6.86C29.7633 7.51333 30.706 8.41867 31.378 9.576C32.0686 10.7333 32.414 12.0493 32.414 13.524C32.414 14.9987 32.0686 16.324 31.378 17.5C30.706 18.6573 29.7633 19.5627 28.55 20.216C27.3366 20.8693 25.9646 21.196 24.434 21.196ZM24.434 18.2C25.722 18.2 26.786 17.7707 27.626 16.912C28.466 16.0533 28.886 14.924 28.886 13.524C28.886 12.124 28.466 10.9947 27.626 10.136C26.786 9.27733 25.722 8.848 24.434 8.848C23.146 8.848 22.082 9.27733 21.242 10.136C20.4206 10.9947 20.01 12.124 20.01 13.524C20.01 14.924 20.4206 16.0533 21.242 16.912C22.082 17.7707 23.146 18.2 24.434 18.2ZM39.0928 8.232C40.1008 6.664 41.8742 5.88 44.4128 5.88V9.212C44.1142 9.156 43.8435 9.128 43.6008 9.128C42.2382 9.128 41.1742 9.52933 40.4088 10.332C39.6435 11.116 39.2608 12.2547 39.2608 13.748V21H35.7608V6.048H39.0928V8.232ZM66.3907 5.88C68.276 5.88 69.7693 6.43067 70.8707 7.532C71.972 8.61467 72.5227 10.248 72.5227 12.432V21H69.0227V12.88C69.0227 11.5733 68.7333 10.5933 68.1547 9.94C67.576 9.268 66.7453 8.932 65.6627 8.932C64.4867 8.932 63.544 9.324 62.8347 10.108C62.1253 10.8733 61.7707 11.9747 61.7707 13.412V21H58.2707V12.88C58.2707 11.5733 57.9813 10.5933 57.4027 9.94C56.824 9.268 55.9933 8.932 54.9107 8.932C53.716 8.932 52.764 9.31467 52.0547 10.08C51.364 10.8453 51.0187 11.956 51.0187 13.412V21H47.5187V6.048H50.8507V7.952C51.4107 7.28 52.1107 6.76667 52.9507 6.412C53.7907 6.05733 54.724 5.88 55.7507 5.88C56.8707 5.88 57.86 6.09467 58.7187 6.524C59.596 6.93467 60.2867 7.55067 60.7907 8.372C61.4067 7.588 62.2 6.98133 63.1707 6.552C64.1413 6.104 65.2147 5.88 66.3907 5.88ZM90.4632 6.384V21H89.1192V17.864C88.6339 18.8907 87.9152 19.6933 86.9632 20.272C86.0112 20.832 84.8912 21.112 83.6032 21.112C81.6992 21.112 80.2059 20.58 79.1232 19.516C78.0406 18.452 77.4992 16.9213 77.4992 14.924V6.384H78.8992V14.812C78.8992 16.4547 79.3192 17.7053 80.1592 18.564C80.9992 19.4227 82.1846 19.852 83.7152 19.852C85.3579 19.852 86.6552 19.3387 87.6072 18.312C88.5779 17.2853 89.0632 15.904 89.0632 14.168V6.384H90.4632ZM96.3977 0.223999H97.7977V21H96.3977V0.223999ZM108.626 6.272C110.437 6.272 111.828 6.73867 112.798 7.672C113.769 8.58667 114.254 9.94 114.254 11.732V21H112.91V18.396C112.444 19.2547 111.762 19.9267 110.866 20.412C109.97 20.8787 108.897 21.112 107.646 21.112C106.022 21.112 104.734 20.7293 103.782 19.964C102.849 19.1987 102.382 18.1907 102.382 16.94C102.382 15.7267 102.812 14.7467 103.67 14C104.548 13.2347 105.938 12.852 107.842 12.852H112.854V11.676C112.854 10.3133 112.481 9.27733 111.734 8.568C111.006 7.85867 109.933 7.504 108.514 7.504C107.544 7.504 106.61 7.672 105.714 8.008C104.837 8.344 104.09 8.792 103.474 9.352L102.774 8.344C103.502 7.69067 104.38 7.18667 105.406 6.832C106.433 6.45867 107.506 6.272 108.626 6.272ZM107.842 19.964C109.056 19.964 110.082 19.684 110.922 19.124C111.781 18.564 112.425 17.752 112.854 16.688V13.944H107.87C106.433 13.944 105.388 14.2053 104.734 14.728C104.1 15.2507 103.782 15.9693 103.782 16.884C103.782 17.836 104.137 18.592 104.846 19.152C105.556 19.6933 106.554 19.964 107.842 19.964Z" fill="#52E3BF"/>
</svg>
