<svg width="83" height="37" viewBox="0 0 83 37" fill="none" xmlns="http://www.w3.org/2000/svg">
<g opacity="0.5">
<path opacity="0.5" d="M41.0801 16.8649V17.9033H35.3042V9.54846H40.9209V10.5868H36.4412V13.153H40.432V14.1675H36.4412V16.8649H41.0801ZM48.2763 13.5707C48.7387 13.706 49.1025 13.9527 49.3678 14.3107C49.6332 14.6608 49.7657 15.1065 49.7657 15.6475C49.7657 16.3716 49.5042 16.9285 48.9812 17.3185C48.4658 17.7084 47.7117 17.9033 46.7186 17.9033H42.9211V9.54846H46.4912C47.4008 9.54846 48.102 9.73943 48.5947 10.1214C49.0949 10.5033 49.3451 11.0324 49.3451 11.7088C49.3451 12.1465 49.2466 12.5243 49.0494 12.8427C48.86 13.161 48.6023 13.4036 48.2763 13.5707ZM44.0581 10.5152V13.1888H46.3889C46.9726 13.1888 47.4198 13.0774 47.7305 12.8546C48.0489 12.6239 48.2081 12.2897 48.2081 11.852C48.2081 11.4144 48.0489 11.0842 47.7305 10.8614C47.4198 10.6306 46.9726 10.5152 46.3889 10.5152H44.0581ZM46.6731 16.9365C47.3175 16.9365 47.8026 16.8252 48.1285 16.6023C48.4545 16.3795 48.6174 16.0294 48.6174 15.552C48.6174 14.621 47.9693 14.1556 46.6731 14.1556H44.0581V16.9365H46.6731Z" fill="#AAAAAA"/>
<path opacity="0.5" d="M32.2339 8.9516L25.5825 29.8387H22.5979L17.1688 13.1589L11.7397 29.8387H8.69825L2.04688 8.9516H4.97462L10.3469 25.9298L15.9465 8.9516H18.5616L24.0476 26.0193L29.5335 8.9516H32.2339Z" fill="#AAAAAA"/>
<path opacity="0.5" d="M35.8269 27.75H31.5974L30.7219 29.8387H29.5508L33.155 21.4839H34.2806L37.8963 29.8387H36.7024L35.8269 27.75ZM35.429 26.7951L33.7122 22.7013L31.9953 26.7951H35.429ZM44.4046 29.8387L42.6877 27.2726C42.4756 27.2884 42.3088 27.2964 42.1875 27.2964H40.2205V29.8387H39.0835V21.4839H42.1875C43.2184 21.4839 44.0294 21.7425 44.6206 22.2597C45.2119 22.7768 45.5075 23.489 45.5075 24.3961C45.5075 25.0406 45.3559 25.5897 45.0527 26.0432C44.7496 26.4968 44.3175 26.827 43.7565 27.0338L45.6439 29.8387H44.4046ZM42.1534 26.2819C42.8735 26.2819 43.423 26.1188 43.802 25.7926C44.1811 25.4664 44.3705 25.0009 44.3705 24.3961C44.3705 23.7913 44.1811 23.3299 43.802 23.0116C43.423 22.6854 42.8735 22.5222 42.1534 22.5222H40.2205V26.2819H42.1534ZM52.6655 29.8387L50.9486 27.2726C50.7365 27.2884 50.5697 27.2964 50.4484 27.2964H48.4814V29.8387H47.3444V21.4839H50.4484C51.4793 21.4839 52.2903 21.7425 52.8815 22.2597C53.4727 22.7768 53.7684 23.489 53.7684 24.3961C53.7684 25.0406 53.6168 25.5897 53.3136 26.0432C53.0104 26.4968 52.5784 26.827 52.0174 27.0338L53.9048 29.8387H52.6655ZM50.4143 26.2819C51.1344 26.2819 51.6839 26.1188 52.0629 25.7926C52.4419 25.4664 52.6314 25.0009 52.6314 24.3961C52.6314 23.7913 52.4419 23.3299 52.0629 23.0116C51.6839 22.6854 51.1344 22.5222 50.4143 22.5222H48.4814V26.2819H50.4143ZM55.6054 21.4839H56.7424V29.8387H55.6054V21.4839ZM62.718 29.9342C61.9145 29.9342 61.1906 29.7512 60.5464 29.3851C59.9021 29.0112 59.3942 28.498 59.0228 27.8455C58.659 27.1929 58.4771 26.4649 58.4771 25.6613C58.4771 24.8577 58.659 24.1296 59.0228 23.4771C59.3942 22.8246 59.9021 22.3154 60.5464 21.9493C61.1906 21.5754 61.9145 21.3884 62.718 21.3884C63.5139 21.3884 64.234 21.5754 64.8783 21.9493C65.5225 22.3154 66.0267 22.8246 66.3905 23.4771C66.7543 24.1216 66.9363 24.8497 66.9363 25.6613C66.9363 26.4729 66.7543 27.2049 66.3905 27.8574C66.0267 28.5019 65.5225 29.0112 64.8783 29.3851C64.234 29.7512 63.5139 29.9342 62.718 29.9342ZM62.718 28.8719C63.3016 28.8719 63.8247 28.7326 64.2871 28.4542C64.757 28.1757 65.1246 27.7938 65.3899 27.3084C65.6628 26.8151 65.7993 26.266 65.7993 25.6613C65.7993 25.0565 65.6628 24.5115 65.3899 24.0261C65.1246 23.5328 64.757 23.1468 64.2871 22.8684C63.8247 22.5899 63.3016 22.4506 62.718 22.4506C62.1343 22.4506 61.6038 22.5899 61.1263 22.8684C60.6562 23.1468 60.2849 23.5328 60.012 24.0261C59.7466 24.5115 59.6141 25.0565 59.6141 25.6613C59.6141 26.266 59.7466 26.8151 60.012 27.3084C60.2849 27.7938 60.6562 28.1757 61.1263 28.4542C61.6038 28.7326 62.1343 28.8719 62.718 28.8719ZM73.9951 29.8387L72.2783 27.2726C72.066 27.2884 71.8993 27.2964 71.778 27.2964H69.811V29.8387H68.674V21.4839H71.778C72.8089 21.4839 73.6199 21.7425 74.2111 22.2597C74.8024 22.7768 75.098 23.489 75.098 24.3961C75.098 25.0406 74.9464 25.5897 74.6432 26.0432C74.34 26.4968 73.9079 26.827 73.347 27.0338L75.2344 29.8387H73.9951ZM71.7439 26.2819C72.4639 26.2819 73.0136 26.1188 73.3925 25.7926C73.7715 25.4664 73.961 25.0009 73.961 24.3961C73.961 23.7913 73.7715 23.3299 73.3925 23.0116C73.0136 22.6854 72.4639 22.5222 71.7439 22.5222H69.811V26.2819H71.7439ZM79.2544 29.9342C78.6556 29.9342 78.0758 29.8387 77.5148 29.6477C76.9615 29.4488 76.5256 29.1942 76.2072 28.8839L76.6279 27.9529C76.9312 28.2393 77.3177 28.4741 77.7876 28.6571C78.2652 28.8322 78.7541 28.9197 79.2544 28.9197C79.9138 28.9197 80.4066 28.8042 80.7324 28.5735C81.0584 28.3348 81.2214 28.0206 81.2214 27.6306C81.2214 27.3442 81.1304 27.1135 80.9485 26.9384C80.7742 26.7554 80.5544 26.6161 80.289 26.5206C80.0314 26.4251 79.6637 26.3177 79.1861 26.1984C78.5874 26.0471 78.1022 25.896 77.7308 25.7448C77.367 25.5936 77.0525 25.3629 76.7871 25.0526C76.5295 24.7342 76.4005 24.3086 76.4005 23.7755C76.4005 23.3299 76.5105 22.928 76.7302 22.57C76.9576 22.2119 77.2987 21.9255 77.7535 21.7106C78.2083 21.4958 78.7731 21.3884 79.4476 21.3884C79.9177 21.3884 80.38 21.452 80.8348 21.5793C81.2896 21.7067 81.68 21.8897 82.0059 22.1284L81.6307 23.0832C81.2972 22.8604 80.941 22.6933 80.5619 22.5819C80.1829 22.4626 79.8115 22.4029 79.4476 22.4029C78.8034 22.4029 78.3183 22.5262 77.9923 22.7729C77.6739 23.0196 77.5148 23.3378 77.5148 23.7277C77.5148 24.0142 77.6057 24.2489 77.7876 24.4319C77.9696 24.607 78.1932 24.7462 78.4585 24.8497C78.7314 24.9451 79.099 25.0486 79.5613 25.16C80.1602 25.3112 80.6415 25.4623 81.0053 25.6135C81.3692 25.7647 81.68 25.9955 81.9376 26.3058C82.203 26.6161 82.3356 27.0338 82.3356 27.559C82.3356 27.9967 82.2219 28.3984 81.9945 28.7645C81.7671 29.1226 81.4223 29.409 80.9598 29.6238C80.4975 29.8307 79.929 29.9342 79.2544 29.9342Z" fill="#AAAAAA"/>
</g>
<path d="M39.9424 15.6712V16.7096H34.1665V8.3548H39.7832V9.39318H35.3035V11.9593H39.2943V12.9738H35.3035V15.6712H39.9424ZM47.1386 12.3771C47.601 12.5123 47.9649 12.759 48.2301 13.1171C48.4955 13.4671 48.6281 13.9128 48.6281 14.4538C48.6281 15.178 48.3665 15.7349 47.8435 16.1248C47.3281 16.5147 46.574 16.7096 45.5809 16.7096H41.7834V8.3548H45.3535C46.2631 8.3548 46.9643 8.54577 47.457 8.9277C47.9572 9.30964 48.2074 9.83877 48.2074 10.5151C48.2074 10.9528 48.1089 11.3307 47.9118 11.649C47.7223 11.9673 47.4646 12.21 47.1386 12.3771ZM42.9204 9.32157V11.9951H45.2512C45.8349 11.9951 46.2821 11.8837 46.5928 11.6609C46.9112 11.4302 47.0704 11.096 47.0704 10.6583C47.0704 10.2207 46.9112 9.8905 46.5928 9.6677C46.2821 9.43695 45.8349 9.32157 45.2512 9.32157H42.9204ZM45.5355 15.7429C46.1798 15.7429 46.6649 15.6315 46.9908 15.4087C47.3168 15.1858 47.4797 14.8358 47.4797 14.3583C47.4797 13.4274 46.8316 12.9619 45.5355 12.9619H42.9204V15.7429H45.5355Z" fill="#D4D4D4"/>
<path d="M31.0971 7.75806L24.4458 28.6452H21.4612L16.0321 11.9653L10.603 28.6452H7.56153L0.910156 7.75806H3.8379L9.21016 24.7363L14.8098 7.75806H17.4249L22.9108 24.8258L28.3968 7.75806H31.0971Z" fill="#D4D4D4"/>
<path d="M34.6893 26.5565H30.4597L29.5842 28.6452H28.4131L32.0173 20.2904H33.1429L36.7586 28.6452H35.5647L34.6893 26.5565ZM34.2913 25.6017L32.5745 21.5078L30.8576 25.6017H34.2913ZM43.2669 28.6452L41.5501 26.0791C41.3379 26.095 41.1711 26.103 41.0498 26.103H39.0828V28.6452H37.9458V20.2904H41.0498C42.0807 20.2904 42.8917 20.549 43.4829 21.0662C44.0742 21.5833 44.3698 22.2955 44.3698 23.2026C44.3698 23.8471 44.2182 24.3962 43.915 24.8497C43.6119 25.3033 43.1798 25.6335 42.6188 25.8404L44.5062 28.6452H43.2669ZM41.0157 25.0884C41.7358 25.0884 42.2853 24.9253 42.6643 24.5991C43.0434 24.2729 43.2328 23.8074 43.2328 23.2026C43.2328 22.5979 43.0434 22.1364 42.6643 21.8181C42.2853 21.4919 41.7358 21.3288 41.0157 21.3288H39.0828V25.0884H41.0157ZM51.5278 28.6452L49.8109 26.0791C49.5988 26.095 49.432 26.103 49.3107 26.103H47.3437V28.6452H46.2067V20.2904H49.3107C50.3416 20.2904 51.1526 20.549 51.7438 21.0662C52.3351 21.5833 52.6307 22.2955 52.6307 23.2026C52.6307 23.8471 52.4791 24.3962 52.1759 24.8497C51.8728 25.3033 51.4407 25.6335 50.8797 25.8404L52.7671 28.6452H51.5278ZM49.2766 25.0884C49.9967 25.0884 50.5462 24.9253 50.9252 24.5991C51.3043 24.2729 51.4937 23.8074 51.4937 23.2026C51.4937 22.5979 51.3043 22.1364 50.9252 21.8181C50.5462 21.4919 49.9967 21.3288 49.2766 21.3288H47.3437V25.0884H49.2766ZM54.4677 20.2904H55.6047V28.6452H54.4677V20.2904ZM61.5803 28.7407C60.7768 28.7407 60.0529 28.5577 59.4087 28.1917C58.7644 27.8177 58.2565 27.3045 57.8851 26.652C57.5213 25.9995 57.3394 25.2714 57.3394 24.4678C57.3394 23.6642 57.5213 22.9361 57.8851 22.2836C58.2565 21.6311 58.7644 21.1219 59.4087 20.7559C60.0529 20.3819 60.7768 20.1949 61.5803 20.1949C62.3762 20.1949 63.0963 20.3819 63.7406 20.7559C64.3848 21.1219 64.889 21.6311 65.2528 22.2836C65.6166 22.9281 65.7986 23.6562 65.7986 24.4678C65.7986 25.2794 65.6166 26.0114 65.2528 26.6639C64.889 27.3084 64.3848 27.8177 63.7406 28.1917C63.0963 28.5577 62.3762 28.7407 61.5803 28.7407ZM61.5803 27.6784C62.164 27.6784 62.687 27.5392 63.1494 27.2607C63.6193 26.9822 63.9869 26.6003 64.2523 26.1149C64.5251 25.6216 64.6616 25.0726 64.6616 24.4678C64.6616 23.863 64.5251 23.318 64.2523 22.8326C63.9869 22.3393 63.6193 21.9533 63.1494 21.6749C62.687 21.3964 62.164 21.2571 61.5803 21.2571C60.9966 21.2571 60.4661 21.3964 59.9886 21.6749C59.5185 21.9533 59.1472 22.3393 58.8743 22.8326C58.6089 23.318 58.4764 23.863 58.4764 24.4678C58.4764 25.0726 58.6089 25.6216 58.8743 26.1149C59.1472 26.6003 59.5185 26.9822 59.9886 27.2607C60.4661 27.5392 60.9966 27.6784 61.5803 27.6784ZM72.8574 28.6452L71.1406 26.0791C70.9283 26.095 70.7616 26.103 70.6403 26.103H68.6733V28.6452H67.5363V20.2904H70.6403C71.6712 20.2904 72.4822 20.549 73.0735 21.0662C73.6647 21.5833 73.9603 22.2955 73.9603 23.2026C73.9603 23.8471 73.8087 24.3962 73.5055 24.8497C73.2023 25.3033 72.7702 25.6335 72.2093 25.8404L74.0967 28.6452H72.8574ZM70.6062 25.0884C71.3263 25.0884 71.8759 24.9253 72.2548 24.5991C72.6338 24.2729 72.8233 23.8074 72.8233 23.2026C72.8233 22.5979 72.6338 22.1364 72.2548 21.8181C71.8759 21.4919 71.3263 21.3288 70.6062 21.3288H68.6733V25.0884H70.6062ZM78.1167 28.7407C77.5179 28.7407 76.9381 28.6452 76.3771 28.4542C75.8238 28.2553 75.3879 28.0007 75.0696 27.6904L75.4902 26.7594C75.7935 27.0459 76.18 27.2806 76.65 27.4636C77.1275 27.6387 77.6164 27.7262 78.1167 27.7262C78.7761 27.7262 79.2689 27.6108 79.5948 27.3801C79.9207 27.1413 80.0837 26.8271 80.0837 26.4371C80.0837 26.1507 79.9927 25.92 79.8108 25.7449C79.6365 25.5619 79.4167 25.4226 79.1513 25.3271C78.8937 25.2317 78.526 25.1242 78.0485 25.0049C77.4497 24.8537 76.9646 24.7026 76.5931 24.5513C76.2293 24.4001 75.9148 24.1694 75.6494 23.8591C75.3918 23.5408 75.2628 23.1151 75.2628 22.582C75.2628 22.1364 75.3728 21.7346 75.5926 21.3765C75.82 21.0184 76.1611 20.732 76.6159 20.5171C77.0706 20.3023 77.6354 20.1949 78.31 20.1949C78.78 20.1949 79.2423 20.2585 79.6971 20.3859C80.1519 20.5132 80.5423 20.6962 80.8682 20.9349L80.493 21.8897C80.1595 21.6669 79.8033 21.4998 79.4242 21.3884C79.0453 21.2691 78.6738 21.2094 78.31 21.2094C77.6657 21.2094 77.1806 21.3327 76.8546 21.5794C76.5363 21.8261 76.3771 22.1443 76.3771 22.5342C76.3771 22.8207 76.468 23.0555 76.65 23.2384C76.8319 23.4135 77.0555 23.5527 77.3208 23.6562C77.5937 23.7517 77.9614 23.8551 78.4237 23.9665C79.0225 24.1177 79.5038 24.2688 79.8676 24.42C80.2315 24.5713 80.5423 24.802 80.8 25.1123C81.0653 25.4226 81.1979 25.8404 81.1979 26.3655C81.1979 26.8032 81.0842 27.205 80.8568 27.571C80.6294 27.9291 80.2846 28.2155 79.8222 28.4304C79.3599 28.6372 78.7914 28.7407 78.1167 28.7407Z" fill="#D4D4D4"/>
</svg>
